<svg width="32" height="32" viewBox="0 0 32 32" fill="none" xmlns="http://www.w3.org/2000/svg">
<g clip-path="url(#clip0_1_17)">
<g clip-path="url(#clip1_1_17)">
<mask id="mask0_1_17" style="mask-type:luminance" maskUnits="userSpaceOnUse" x="1" y="0" width="30" height="32">
<path d="M1.54079 0H30.3153V32H1.54079V0Z" fill="white"/>
</mask>
<g mask="url(#mask0_1_17)">
<path d="M17.8922 31.4421L20.8284 29.7472V24.0961L15.928 26.801L11.0277 24.0961V29.7472L13.9638 31.4421C14.5609 31.7873 15.2383 31.969 15.928 31.9688C16.6176 31.969 17.2951 31.7873 17.8922 31.4421ZM5.35152 10.644C5.3514 10.4954 5.39051 10.3494 5.46482 10.2206C5.53913 10.0919 5.64603 9.98501 5.77486 9.91072C5.90358 9.83642 6.04959 9.79734 6.19821 9.79741C6.34683 9.79747 6.49285 9.83667 6.62156 9.91108L15.9209 15.1579L25.2348 9.91121C25.3635 9.83684 25.5095 9.79767 25.6581 9.79762C25.8067 9.79757 25.9527 9.83666 26.0814 9.91095C26.2102 9.98523 26.3171 10.0921 26.3914 10.2208C26.4657 10.3495 26.5048 10.4955 26.5048 10.6441V26.4704L28.32 25.4225C28.9169 25.0775 29.4126 24.5816 29.7573 23.9846C30.1021 23.3875 30.2837 22.7103 30.2841 22.0209V9.97913C30.2837 9.28965 30.1021 8.61237 29.7573 8.01528C29.4126 7.41818 28.9168 6.92225 28.3198 6.57728L17.8921 0.557786C17.2951 0.212735 16.6176 0.0310669 15.928 0.0310669C15.2383 0.0310669 14.5609 0.212735 13.9638 0.557786L3.53605 6.57728C2.93907 6.92218 2.44319 7.4181 2.09842 8.01521C1.75365 8.61233 1.57208 9.28964 1.57184 9.97913V22.0209C1.5722 22.7103 1.75389 23.3875 2.09866 23.9846C2.44343 24.5816 2.93931 25.0775 3.53629 25.4222L5.35152 26.4702V10.644Z" fill="#44C9F6"/>
</g>
</g>
</g>
<defs>
<clipPath id="clip0_1_17">
<rect width="32" height="32" fill="white"/>
</clipPath>
<clipPath id="clip1_1_17">
<rect width="28.8" height="32" fill="white" transform="translate(1.54077)"/>
</clipPath>
</defs>
</svg>
